# xmcd CD database file
#
# Track frame offsets:
#	150
#	21525
#	40882
#	59400
#	79810
#	103275
#	118950
#	132375
#	155025
#	173635
#	195000
#	211425
#	230475
#	248775
#	264375
#
# Disc length: 3780 seconds
#
# Revision: 0
# Processed by: cddbd v1.5PL3 Copyright (c) Steve Scherf et al.
# Submitted via: CDex 1.51
#
DISCID=d70ec20f
DTITLE=Various Artist - Silence Vol. 3, CD 3
DYEAR=1900
DGENRE=New Age
TTITLE0=Viva Forever
TTITLE1=Son SUng Blue
TTITLE2=Neptun
TTITLE3=Excalibur
TTITLE4=My Love
TTITLE5=Siderial Hour
TTITLE6=Stars Over The Rainbow
TTITLE7=Mama
TTITLE8=Melody of Hope
TTITLE9=Solar Winds
TTITLE10=2 Become 1
TTITLE11=Alone In The Night
TTITLE12=Silver Bird
TTITLE13=Blue Sky
TTITLE14=Stonehedge
EXTD=
EXTT0=
EXTT1=
EXTT2=
EXTT3=
EXTT4=
EXTT5=
EXTT6=
EXTT7=
EXTT8=
EXTT9=
EXTT10=
EXTT11=
EXTT12=
EXTT13=
EXTT14=
PLAYORDER=
